<svg width="28" height="28" viewBox="0 0 28 28" fill="none" xmlns="http://www.w3.org/2000/svg">
<path d="M8.16659 8.16667C9.45525 8.16667 10.4999 7.122 10.4999 5.83333C10.4999 4.54467 9.45525 3.5 8.16659 3.5C6.87792 3.5 5.83325 4.54467 5.83325 5.83333C5.83325 7.122 6.87792 8.16667 8.16659 8.16667Z" stroke="white" stroke-width="1.5" stroke-linecap="round" stroke-linejoin="round"/>
<path d="M5.83341 25.6667V19.8334L4.66675 18.6667V14C4.66675 13.6906 4.78966 13.3939 5.00846 13.1751C5.22725 12.9563 5.524 12.8334 5.83341 12.8334H10.5001C10.8095 12.8334 11.1062 12.9563 11.325 13.1751C11.5438 13.3939 11.6667 13.6906 11.6667 14V18.6667L10.5001 19.8334V25.6667" stroke="white" stroke-width="1.5" stroke-linecap="round" stroke-linejoin="round"/>
<path d="M19.8333 8.16667C21.122 8.16667 22.1667 7.122 22.1667 5.83333C22.1667 4.54467 21.122 3.5 19.8333 3.5C18.5447 3.5 17.5 4.54467 17.5 5.83333C17.5 7.122 18.5447 8.16667 19.8333 8.16667Z" stroke="white" stroke-width="1.5" stroke-linecap="round" stroke-linejoin="round"/>
<path d="M17.5001 25.6667V21H15.1667L17.5001 14C17.5001 13.6906 17.623 13.3939 17.8418 13.1751C18.0606 12.9563 18.3573 12.8334 18.6667 12.8334H21.0001C21.3095 12.8334 21.6062 12.9563 21.825 13.1751C22.0438 13.3939 22.1667 13.6906 22.1667 14L24.5001 21H22.1667V25.6667" stroke="white" stroke-width="1.5" stroke-linecap="round" stroke-linejoin="round"/>
</svg>
