<svg width="20" height="20" viewBox="0 0 20 20" fill="none" xmlns="http://www.w3.org/2000/svg">
<g opacity="0.8">
<path d="M10 11.6667C11.3807 11.6667 12.5 10.5475 12.5 9.16675C12.5 7.78604 11.3807 6.66675 10 6.66675C8.61929 6.66675 7.5 7.78604 7.5 9.16675C7.5 10.5475 8.61929 11.6667 10 11.6667Z" stroke="white" stroke-width="1.5" stroke-linecap="round" stroke-linejoin="round"/>
<path d="M14.7141 13.8808L11.1783 17.4167C10.8657 17.7289 10.4421 17.9042 10.0003 17.9042C9.5586 17.9042 9.13493 17.7289 8.82242 17.4167L5.28576 13.8808C4.35344 12.9485 3.71853 11.7606 3.46133 10.4674C3.20412 9.17419 3.33616 7.83376 3.84076 6.61561C4.34535 5.39746 5.19984 4.35628 6.29616 3.62376C7.39248 2.89123 8.68139 2.50024 9.99992 2.50024C11.3185 2.50024 12.6074 2.89123 13.7037 3.62376C14.8 4.35628 15.6545 5.39746 16.1591 6.61561C16.6637 7.83376 16.7957 9.17419 16.5385 10.4674C16.2813 11.7606 15.6464 12.9485 14.7141 13.8808V13.8808Z" stroke="white" stroke-width="1.5" stroke-linecap="round" stroke-linejoin="round"/>
</g>
</svg>
