<svg width="28" height="28" viewBox="0 0 28 28" fill="none" xmlns="http://www.w3.org/2000/svg">
<path d="M21 7V7.01333" stroke="white" stroke-width="2.75" stroke-linecap="round" stroke-linejoin="round"/>
<path d="M20.9999 15.1667L16.9166 9.33338C16.5235 8.62292 16.3226 7.82219 16.3337 7.01031C16.3448 6.19842 16.5675 5.40349 16.9799 4.70405C17.3923 4.0046 17.98 3.42486 18.685 3.02209C19.3901 2.61932 20.188 2.40747 20.9999 2.40747C21.8119 2.40747 22.6098 2.61932 23.3148 3.02209C24.0198 3.42486 24.6076 4.0046 25.0199 4.70405C25.4323 5.40349 25.655 6.19842 25.6662 7.01031C25.6773 7.82219 25.4763 8.62292 25.0833 9.33338L20.9999 15.1667Z" stroke="white" stroke-width="1.5" stroke-linecap="round" stroke-linejoin="round"/>
<path d="M12.25 5.54163L10.5 4.66663L3.5 8.16663V23.3333L10.5 19.8333L17.5 23.3333L24.5 19.8333V17.5" stroke="white" stroke-width="1.5" stroke-linecap="round" stroke-linejoin="round"/>
<path d="M10.5 4.66663V19.8333" stroke="white" stroke-width="1.5" stroke-linecap="round" stroke-linejoin="round"/>
<path d="M17.5 17.5V23.3333" stroke="white" stroke-width="1.5" stroke-linecap="round" stroke-linejoin="round"/>
</svg>
